<svg xmlns="http://www.w3.org/2000/svg" width="25" height="25" fill="none" viewBox="0 0 25 25"><g clip-path="url(#clip0)"><path fill="#FFB800" fill-opacity=".5" stroke="#FFB800" stroke-linecap="round" stroke-linejoin="round" stroke-width="2" d="M12.7608 17.3939C15.5223 17.3939 17.7608 15.1553 17.7608 12.3939C17.7608 9.63244 15.5223 7.39386 12.7608 7.39386C9.99943 7.39386 7.76085 9.63244 7.76085 12.3939C7.76085 15.1553 9.99943 17.3939 12.7608 17.3939Z"/><path stroke="#FFB800" stroke-linecap="round" stroke-linejoin="round" stroke-width="2" d="M12.7608 1.39386V3.39386"/><path stroke="#FFB800" stroke-linecap="round" stroke-linejoin="round" stroke-width="2" d="M12.7608 21.3939V23.3939"/><path stroke="#FFB800" stroke-linecap="round" stroke-linejoin="round" stroke-width="2" d="M4.98085 4.61383L6.40085 6.03383"/><path stroke="#FFB800" stroke-linecap="round" stroke-linejoin="round" stroke-width="2" d="M19.1208 18.7538L20.5408 20.1738"/><path stroke="#FFB800" stroke-linecap="round" stroke-linejoin="round" stroke-width="2" d="M1.76085 12.3939H3.76085"/><path stroke="#FFB800" stroke-linecap="round" stroke-linejoin="round" stroke-width="2" d="M21.7608 12.3939H23.7608"/><path stroke="#FFB800" stroke-linecap="round" stroke-linejoin="round" stroke-width="2" d="M4.98085 20.1738L6.40085 18.7538"/><path stroke="#FFB800" stroke-linecap="round" stroke-linejoin="round" stroke-width="2" d="M19.1208 6.03383L20.5408 4.61383"/></g><defs><clipPath id="clip0"><rect width="24" height="24" x=".761" y=".394" fill="#fff"/></clipPath></defs></svg>